<svg width="852" height="812" viewBox="0 0 852 812" fill="none" xmlns="http://www.w3.org/2000/svg">
<path d="M466.53 279.859C485.721 279.859 495.316 279.859 500.663 273.712C506.01 267.565 504.661 258.07 501.962 239.079L472.527 32.133C470.428 17.4904 469.379 10.144 464.381 5.79623C459.334 1.39844 451.937 1.39844 437.145 1.39844H414.906C400.114 1.39844 392.717 1.39844 387.67 5.79623C382.622 10.194 381.573 17.4904 379.524 32.133L350.039 239.079C347.34 258.07 345.991 267.565 351.338 273.712C356.685 279.859 366.281 279.859 385.471 279.859H466.53Z" fill="#FF6C37"/>
<path d="M287.984 350.674C293.931 332.433 296.879 323.338 292.681 316.341C288.483 309.345 279.038 307.695 260.148 304.397L54.2011 268.415C39.6085 265.866 32.3121 264.617 26.615 268.015C20.9179 271.464 18.619 278.51 14.0213 292.553L7.17476 313.742C2.57707 327.835 0.328197 334.832 2.92689 340.979C5.52559 347.126 12.1722 350.374 25.4656 356.871L213.171 448.824C230.413 457.27 239.008 461.468 246.505 458.27C254.001 455.071 256.999 445.976 262.896 427.735L287.984 350.674Z" fill="#FF6C37"/>
<path d="M300.161 542.38C284.669 531.085 276.873 525.488 268.927 527.337C260.981 529.186 256.483 537.632 247.537 554.624L149.687 739.281C142.74 752.374 139.292 758.921 140.791 765.418C142.29 771.915 148.287 776.262 160.281 784.958L178.272 798.001C190.266 806.697 196.213 811.045 202.86 810.495C209.507 809.895 214.654 804.598 224.949 793.953L370.376 643.829C383.719 630.036 390.366 623.189 389.666 615.043C388.966 606.897 381.22 601.3 365.678 590.006L300.161 542.38Z" fill="#FF6C37"/>
<path d="M486.162 590.055C470.669 601.349 462.873 606.946 462.174 615.092C461.474 623.238 468.121 630.084 481.464 643.878L626.891 794.002C637.186 804.647 642.333 809.944 648.98 810.544C655.627 811.144 661.624 806.796 673.568 798.05L691.559 785.007C703.552 776.311 709.5 771.963 711.049 765.466C712.598 758.97 709.1 752.423 702.153 739.33L604.402 554.622C595.407 537.681 590.959 529.185 583.013 527.386C575.067 525.537 567.321 531.184 551.779 542.428L486.162 590.055Z" fill="#FF6C37"/>
<path d="M589.097 427.834C595.044 446.075 597.993 455.17 605.489 458.369C612.985 461.567 621.631 457.319 638.823 448.873L826.528 356.92C839.821 350.423 846.468 347.175 849.067 341.028C851.666 334.881 849.367 327.834 844.819 313.791L837.973 292.652C833.375 278.559 831.126 271.563 825.379 268.114C819.682 264.666 812.385 265.965 797.793 268.514L591.896 304.496C573.006 307.794 563.56 309.444 559.362 316.44C555.165 323.436 558.113 332.532 564.06 350.773L589.097 427.834Z" fill="#FF6C37"/>
</svg>
