<svg width="600" height="600" viewBox="0 0 600 600" fill="none" xmlns="http://www.w3.org/2000/svg">
<rect width="600" height="600" fill="#023A4F"/>
<path d="M316.034 237.818C323.626 237.818 327.422 237.818 329.537 235.386C331.653 232.954 331.119 229.198 330.051 221.685L318.406 139.813C317.576 134.02 317.161 131.113 315.183 129.393C313.187 127.653 310.26 127.653 304.408 127.653H295.61C289.758 127.653 286.832 127.653 284.835 129.393C282.838 131.133 282.423 134.02 281.612 139.813L269.947 221.685C268.879 229.198 268.346 232.954 270.461 235.386C272.577 237.818 276.373 237.818 283.965 237.818H316.034Z" fill="#FF6C37"/>
<path d="M245.397 265.834C247.75 258.618 248.916 255.019 247.255 252.251C245.594 249.483 241.858 248.831 234.384 247.526L152.907 233.291C147.134 232.283 144.248 231.788 141.994 233.133C139.74 234.497 138.83 237.285 137.011 242.84L134.303 251.223C132.484 256.799 131.594 259.567 132.622 261.999C133.65 264.43 136.28 265.716 141.539 268.286L215.799 304.665C222.62 308.006 226.021 309.667 228.987 308.401C231.952 307.136 233.139 303.538 235.472 296.321L245.397 265.834Z" fill="#FF6C37"/>
<path d="M250.214 341.677C244.085 337.209 241.001 334.994 237.857 335.726C234.714 336.458 232.934 339.799 229.395 346.521L190.683 419.575C187.935 424.755 186.571 427.346 187.164 429.916C187.757 432.486 190.13 434.206 194.875 437.646L201.993 442.807C206.738 446.247 209.09 447.967 211.72 447.749C214.35 447.512 216.386 445.416 220.459 441.205L277.993 381.813C283.272 376.356 285.901 373.647 285.624 370.424C285.348 367.202 282.283 364.987 276.134 360.519L250.214 341.677Z" fill="#FF6C37"/>
<path d="M323.8 360.538C317.671 365.007 314.587 367.221 314.31 370.444C314.033 373.666 316.663 376.375 321.942 381.832L379.476 441.224C383.549 445.436 385.585 447.531 388.215 447.769C390.844 448.006 393.217 446.286 397.942 442.826L405.06 437.666C409.805 434.225 412.157 432.505 412.77 429.935C413.383 427.365 411.999 424.775 409.251 419.595L370.579 346.521C367.02 339.818 365.26 336.457 362.117 335.745C358.973 335.014 355.909 337.248 349.76 341.696L323.8 360.538Z" fill="#FF6C37"/>
<path d="M364.524 296.36C366.877 303.577 368.043 307.175 371.009 308.441C373.974 309.706 377.395 308.025 384.196 304.684L458.457 268.305C463.716 265.735 466.345 264.45 467.373 262.018C468.401 259.586 467.492 256.798 465.693 251.243L462.984 242.879C461.165 237.304 460.275 234.536 458.002 233.172C455.748 231.808 452.861 232.322 447.088 233.33L365.631 247.565C358.158 248.87 354.421 249.523 352.76 252.291C351.099 255.058 352.266 258.657 354.619 265.873L364.524 296.36Z" fill="#FF6C37"/>
</svg>
